<svg width="52" height="53" viewBox="0 0 52 53" fill="none" xmlns="http://www.w3.org/2000/svg">
<path fill-rule="evenodd" clip-rule="evenodd" d="M52 26.0415C52 40.4009 40.3594 52.0415 26 52.0415C11.6406 52.0415 0 40.4009 0 26.0415C0 11.6821 11.6406 0.0415039 26 0.0415039C40.3594 0.0415039 52 11.6821 52 26.0415ZM26 49.2558C38.8209 49.2558 49.2143 38.8624 49.2143 26.0415C49.2143 13.2206 38.8209 2.82722 26 2.82722C13.1791 2.82722 2.78571 13.2206 2.78571 26.0415C2.78571 38.8624 13.1791 49.2558 26 49.2558Z" fill="white"/>
<mask id="mask0_3224_265929" style="mask-type:alpha" maskUnits="userSpaceOnUse" x="2" y="2" width="48" height="48">
<path d="M2.78578 26.0414C2.78578 38.8623 13.1792 49.2557 26.0001 49.2557C38.821 49.2557 49.2144 38.8623 49.2144 26.0414C49.2144 13.2205 38.821 2.82715 26.0001 2.82715C13.1792 2.82715 2.78578 13.2205 2.78578 26.0414Z" fill="white"/>
<path d="M2.78578 26.0414C2.78578 38.8623 13.1792 49.2557 26.0001 49.2557C38.821 49.2557 49.2144 38.8623 49.2144 26.0414C49.2144 13.2205 38.821 2.82715 26.0001 2.82715C13.1792 2.82715 2.78578 13.2205 2.78578 26.0414Z" stroke="white"/>
</mask>
<g mask="url(#mask0_3224_265929)">
<path d="M49.2142 26.0414C49.2142 38.8623 38.8208 49.2557 25.9999 49.2557C13.179 49.2557 2.78564 38.8623 2.78564 26.0414C2.78564 13.2205 13.179 2.82715 25.9999 2.82715C38.8208 2.82715 49.2142 13.2205 49.2142 26.0414Z" fill="#D2D8E7"/>
<path d="M34.1482 36.1621C31.311 38.2255 28.4736 39.8764 25.6363 39.8764C22.7991 39.8764 19.9617 38.2255 17.1244 36.1621C19.4631 35.4502 20.6496 34.3875 20.6839 32.974C20.6839 32.722 20.6821 32.3642 20.6804 31.6924C20.6804 31.5857 20.6801 31.4765 20.6796 31.3646C20.675 29.5632 20.6674 27.1861 20.6567 24.7718C18.4387 21.8968 19.2535 18.5262 19.9485 18.6102C20.8006 18.7139 28.1832 11.7082 29.5993 11.349C31.0154 10.9898 34.6125 12.1494 35.2316 15.38C35.8506 18.6107 36.1094 26.754 33.7613 30.005C33.0932 30.9302 32.0408 31.2921 30.6042 31.0907C30.6022 31.7669 30.5982 32.1463 30.5887 32.9121C30.6071 34.3899 31.7935 35.451 34.1482 36.1621Z" fill="#C7CFE2"/>
<g style="mix-blend-mode:multiply" opacity="0.6">
<path d="M30.5891 31.0891C27.1843 30.7022 25.0177 29.2319 25.0177 29.2319C25.0177 29.2319 27.4939 32.3272 30.5891 32.9462V31.0891Z" fill="black" fill-opacity="0.2"/>
</g>
<path d="M19.5233 24.8192C18.457 22.2548 14.184 17.032 17.8674 13.782C19.1055 7.74629 25.9459 8.4144 30.5114 9.80725C33.5799 10.7434 35.8971 12.593 36.3924 11.2001C39.4876 13.782 37.9375 16.3073 35.8971 17.032C34.0453 17.6897 30.9138 18.3475 25.5891 17.7284C24.6379 17.6178 24.8371 20.5309 24.3288 20.8458C23.5663 21.3183 22.9745 18.3475 20.884 19.2395C18.7935 20.1316 20.034 24.2677 22.2781 24.2677C23.0519 24.2677 23.4388 26.3952 21.3495 27.4012C19.8329 28.1465 20.2162 26.4855 19.5233 24.8192Z" fill="#B7C0D8"/>
<path d="M9.38633 40.8837C7.913 43.8794 7.0649 50.7885 7.0649 50.7885H44.2078C44.2078 50.7885 43.3594 43.8787 41.8863 40.8837C40.4133 37.8888 31.8113 35.1109 31.8113 35.1109C26.2167 35.1099 24.3595 35.1099 19.4658 35.1099C19.4658 35.1099 10.8597 37.888 9.38633 40.8837Z" fill="#B7C0D8"/>
</g>
</svg>
