<?xml version="1.0" encoding="iso-8859-1"?>
<!-- Uploaded to: SVG Repo, www.svgrepo.com, Generator: SVG Repo Mixer Tools -->
<svg version="1.1" id="Layer_1" xmlns="http://www.w3.org/2000/svg" xmlns:xlink="http://www.w3.org/1999/xlink" 
	 viewBox="0 0 460 460" xml:space="preserve">
<g id="XMLID_511_">
	<polygon id="XMLID_512_" style="fill:#354A67;" points="0,0 0,460 230,460 240,230 230,0 	"/>
	<rect id="XMLID_515_" x="230" style="fill:#233145;" width="230" height="460"/>
	<polygon id="XMLID_516_" style="fill:#8799B3;" points="45,45 45,415 230,415 240,230 230,45 	"/>
	<rect id="XMLID_517_" x="230" y="45" style="fill:#6B81A1;" width="185" height="370"/>
	<rect id="XMLID_518_" x="30" y="75" style="fill:#121923;" width="30" height="90"/>
	<rect id="XMLID_519_" x="30" y="295" style="fill:#121923;" width="30" height="90"/>
	<path id="XMLID_520_" style="fill:#354A67;" d="M230,130c-37.011,0-69.323,20.107-86.615,49.993l36.097,30.841L230,230l10-50
		L230,130z"/>
	<path id="XMLID_521_" style="fill:#354A67;" d="M143.385,280.007C160.677,309.893,192.989,330,230,330l10-50l-10-50l-51.969,20.004
		L143.385,280.007z"/>
	<path id="XMLID_522_" style="fill:#466289;" d="M143.385,179.993C134.874,194.704,130,211.782,130,230s4.874,35.296,13.385,50.007
		L230,230L143.385,179.993z"/>
	<path id="XMLID_523_" style="fill:#233145;" d="M316.615,179.993C299.323,150.107,267.011,130,230,130v100l52.096-20.077
		L316.615,179.993z"/>
	<path id="XMLID_524_" style="fill:#233145;" d="M230,330c37.011,0,69.323-20.107,86.615-49.993l-33.937-29.594L230,230V330z"/>
	<path id="XMLID_525_" style="fill:#354A67;" d="M316.615,179.993L230,230l86.615,50.007C325.126,265.296,330,248.218,330,230
		S325.126,194.704,316.615,179.993z"/>
	<path id="XMLID_526_" style="fill:#233145;" d="M170,230c0,33.137,26.863,60,60,60l10-60l-10-60C196.863,170,170,196.863,170,230z"
		/>
	<path id="XMLID_527_" style="fill:#121923;" d="M230,170v120c33.137,0,60-26.863,60-60S263.137,170,230,170z"/>
</g>
</svg>