<svg width="25" height="24" viewBox="0 0 25 24" fill="none" xmlns="http://www.w3.org/2000/svg">
<path d="M19.5138 10.7494C19.2548 10.7491 18.9968 10.7794 18.7451 10.8398V8.37439C18.7441 7.67897 18.4677 7.01244 17.9759 6.52082C17.4842 6.02922 16.8174 5.75262 16.122 5.75186H13.6598C13.786 5.22174 13.7801 4.66897 13.6421 4.14185C13.486 3.54487 13.163 3.00456 12.7106 2.58477C12.2585 2.16475 11.6958 1.88268 11.0889 1.77133C9.99787 1.56505 8.87647 1.92592 8.11068 2.73015C7.3452 3.53443 7.03948 4.67215 7.2992 5.75179H4.83722C4.14205 5.75254 3.47526 6.02916 2.98363 6.52076C2.49177 7.01236 2.21516 7.67891 2.2144 8.37432V11.0115C2.2144 11.3087 2.35507 11.5883 2.59342 11.7656C2.83176 11.943 3.13994 11.9972 3.42449 11.9119C3.83482 11.7909 4.27172 11.7919 4.6816 11.9144C5.09168 12.0372 5.45725 12.2763 5.73389 12.6028C6.2173 13.175 6.37562 13.9541 6.15417 14.6696C5.93272 15.3854 5.36185 15.9386 4.63957 16.1377C4.24092 16.2465 3.81989 16.2416 3.42376 16.1235C3.13918 16.0383 2.831 16.0927 2.59287 16.2701C2.35478 16.4476 2.21436 16.7272 2.21436 17.0242V19.6627C2.2151 20.3583 2.49172 21.0249 2.98333 21.5167C3.47518 22.0083 4.14201 22.2849 4.83743 22.2857H7.48933C7.78982 22.2854 8.0724 22.1418 8.24908 21.8987C8.42604 21.6554 8.476 21.3425 8.38354 21.0565C8.17179 20.3879 8.29158 19.6587 8.70589 19.0931C9.1202 18.5275 9.77957 18.1934 10.4807 18.1936C11.1821 18.1941 11.841 18.5289 12.2548 19.0948C12.6686 19.661 12.7876 20.3904 12.5751 21.0584C12.4832 21.3445 12.5336 21.6572 12.7106 21.8998C12.8876 22.1423 13.1699 22.2857 13.4702 22.2857H16.1221C16.8175 22.285 17.4843 22.0084 17.9762 21.5165C18.4678 21.0249 18.7444 20.3581 18.7451 19.6627V17.1962C19.3024 17.3299 19.8847 17.3165 20.4351 17.158C21.0299 16.9867 21.5632 16.6492 21.9723 16.1852C22.3817 15.7209 22.6496 15.1496 22.7448 14.5382C22.8959 13.5923 22.6248 12.6275 22.0032 11.8988C21.3816 11.1698 20.4717 10.7498 19.5138 10.7494ZM21.685 14.3749C21.6179 14.7823 21.4375 15.1628 21.1646 15.4727C20.8914 15.7824 20.5368 16.009 20.1409 16.1266C19.7293 16.2459 19.2923 16.2444 18.8815 16.1226C18.5969 16.0371 18.2888 16.0915 18.0506 16.269C17.8123 16.4464 17.6721 16.726 17.6726 17.0232V19.6626C17.6721 20.0737 17.5086 20.4679 17.218 20.7587C16.9273 21.0492 16.5331 21.2127 16.122 21.2132H13.6463C13.9001 20.2333 13.6863 19.1909 13.0667 18.3904C12.4471 17.5899 11.492 17.1214 10.4797 17.1214C9.46744 17.1214 8.51205 17.5899 7.89272 18.3904C7.27312 19.1909 7.0591 20.2333 7.31288 21.2132H4.83723C4.4264 21.2127 4.03224 21.0492 3.74141 20.7587C3.45087 20.4679 3.28733 20.0737 3.28684 19.6626V17.1969C3.82268 17.3242 4.38138 17.3165 4.91348 17.1746C5.51246 17.0158 6.05326 16.6884 6.47154 16.2311C6.89007 15.7741 7.16842 15.2065 7.27379 14.5958C7.46615 13.5087 7.09807 12.398 6.29453 11.641C5.49126 10.884 4.36045 10.5825 3.28677 10.8391V8.37438C3.28727 7.96331 3.45081 7.5694 3.74159 7.27883C4.03213 6.9883 4.42633 6.82476 4.83716 6.82427H7.47213C7.76938 6.82427 8.04923 6.68335 8.22641 6.44476C8.40359 6.20617 8.45779 5.89774 8.37205 5.61294C8.17273 4.94685 8.29998 4.22586 8.71528 3.66845C9.13058 3.111 9.78495 2.78242 10.4801 2.78267C11.1755 2.78292 11.8297 3.11173 12.2444 3.66966C12.6595 4.22737 12.7863 4.94838 12.5864 5.6144C12.5009 5.89897 12.5554 6.20715 12.7328 6.44571C12.9103 6.68406 13.1899 6.82448 13.4871 6.82423H16.1218C16.5329 6.82472 16.9271 6.98826 17.2176 7.27879C17.5084 7.56932 17.672 7.96326 17.6725 8.37434V11.0125C17.6725 11.31 17.8131 11.5899 18.052 11.7673C18.2908 11.9445 18.5992 11.9984 18.8841 11.9127C19.6103 11.6967 20.3962 11.8694 20.965 12.3695C21.5339 12.8695 21.8061 13.6271 21.685 14.3749Z" fill="white"/>
<path d="M21.685 14.3749C21.6179 14.7823 21.4375 15.1628 21.1646 15.4727C20.8914 15.7824 20.5368 16.009 20.1409 16.1266C19.7293 16.2459 19.2923 16.2444 18.8815 16.1226C18.5969 16.0371 18.2888 16.0915 18.0506 16.269C17.8123 16.4464 17.6721 16.726 17.6726 17.0232V19.6626C17.6721 20.0737 17.5086 20.4679 17.218 20.7587C16.9273 21.0492 16.5331 21.2127 16.122 21.2132H13.6463C13.9001 20.2333 13.6863 19.1909 13.0667 18.3904C12.4471 17.5899 11.492 17.1214 10.4797 17.1214C9.46744 17.1214 8.51205 17.5899 7.89272 18.3904C7.27312 19.1909 7.0591 20.2333 7.31288 21.2132H4.83723C4.4264 21.2127 4.03224 21.0492 3.74141 20.7587C3.45087 20.4679 3.28733 20.0737 3.28684 19.6626V17.1969C3.82268 17.3242 4.38138 17.3165 4.91348 17.1746C5.51246 17.0158 6.05326 16.6884 6.47154 16.2311C6.89007 15.7741 7.16842 15.2065 7.27379 14.5958C7.46615 13.5087 7.09807 12.398 6.29453 11.641C5.49126 10.884 4.36045 10.5825 3.28677 10.8391V8.37438C3.28727 7.96331 3.45081 7.5694 3.74159 7.27883C4.03213 6.9883 4.42633 6.82476 4.83716 6.82427H7.47213C7.76938 6.82427 8.04923 6.68335 8.22641 6.44476C8.40359 6.20617 8.45779 5.89774 8.37205 5.61294C8.17273 4.94685 8.29998 4.22586 8.71528 3.66845C9.13058 3.111 9.78495 2.78242 10.4801 2.78267C11.1755 2.78292 11.8297 3.11173 12.2444 3.66966C12.6595 4.22737 12.7863 4.94838 12.5864 5.6144C12.5009 5.89897 12.5554 6.20715 12.7328 6.44571C12.9103 6.68406 13.1899 6.82448 13.4871 6.82423H16.1218C16.5329 6.82472 16.9271 6.98826 17.2176 7.27879C17.5084 7.56932 17.672 7.96326 17.6725 8.37434V11.0125C17.6725 11.31 17.8131 11.5899 18.052 11.7673C18.2908 11.9445 18.5992 11.9984 18.8841 11.9127C19.6103 11.6967 20.3962 11.8694 20.965 12.3695C21.5339 12.8695 21.8061 13.6271 21.685 14.3749Z" fill="white"/>
</svg>
