<svg width="24" height="24" viewBox="0 0 24 24" fill="none" xmlns="http://www.w3.org/2000/svg">
<path d="M19.0817 19.5127C18.7326 19.1628 18.25 19.0285 17.798 19.1091C17.8591 18.851 17.9654 18.5254 18.1236 18.1012C18.1831 17.9418 19.2877 15.2128 19.183 13.0188C19.0767 10.7874 17.8419 8.99242 17.0345 8.11422C17.0362 8.11296 17.0379 8.11171 17.0391 8.10961L17.6247 7.52261L20.2977 4.84313L20.2763 6.44091C20.273 6.67672 20.3672 6.89113 20.5216 7.04554C20.6761 7.19995 20.8753 7.28806 21.1022 7.29142C21.5643 7.29771 21.9443 6.92721 21.9506 6.46357L21.9991 2.87485C22.0021 2.65121 21.9159 2.43597 21.7601 2.2761C21.7581 2.27401 21.7564 2.27191 21.7543 2.27023C21.5986 2.11414 21.388 2.02603 21.1679 2.02435L17.515 2.00002C17.0525 1.99708 16.6754 2.37009 16.6725 2.83373C16.6695 3.29738 17.0416 3.67542 17.5042 3.67836L19.0822 3.68885L16.4414 6.33602L15.8768 6.90204C15.8676 6.91001 15.8592 6.91798 15.8504 6.9268C14.9739 6.11699 13.1862 4.79572 10.959 4.77432C8.82014 4.75376 5.14763 6.10399 4.88351 6.16483C4.96471 5.71125 4.83077 5.22663 4.48127 4.87586C3.91369 4.3069 2.99326 4.3069 2.42568 4.87586C1.85811 5.44482 1.85811 6.36749 2.42568 6.93645C2.4554 6.96624 2.48596 6.99393 2.51735 7.02036C2.51735 7.02036 2.51735 7.0212 2.51735 7.02078C2.54414 7.0598 2.57427 7.09631 2.6086 7.13071C3.21552 7.73911 3.93839 7.98373 4.81905 7.87967C5.49964 7.79911 6.20535 7.52009 7.02323 7.19701C7.07597 7.17645 7.12954 7.15505 7.18312 7.13407L11.4144 11.3757L7.02532 15.7754L4.5587 15.7591C4.09619 15.7561 3.71906 16.1292 3.71613 16.5928C3.7132 17.0564 4.0853 17.4345 4.54782 17.4374L5.36193 17.4429L4.33184 18.4755L2.94052 18.4662C2.478 18.4633 2.10087 18.8363 2.09794 19.3C2.09501 19.7636 2.46712 20.1417 2.92964 20.1446L3.86346 20.1509L3.85132 21.0517C3.84797 21.2875 3.94215 21.502 4.0966 21.6564C4.25106 21.8108 4.45029 21.8989 4.67716 21.9022C5.13926 21.9085 5.51931 21.538 5.52559 21.0744L5.54485 19.6335L6.5628 18.6131L6.55192 19.4296C6.54857 19.6654 6.64275 19.8798 6.7972 20.0342C6.95165 20.1886 7.15089 20.2768 7.37775 20.2797C7.83985 20.286 8.21991 19.9155 8.22619 19.4519L8.26051 16.9113L12.599 12.5623L16.8307 16.8043C16.8098 16.858 16.7884 16.9113 16.7675 16.9641C16.4452 17.784 16.1668 18.4914 16.0865 19.1737C15.9827 20.0565 16.2267 20.7811 16.8336 21.3895C16.8679 21.4239 16.9039 21.4541 16.9429 21.481V21.4814C16.9692 21.5129 16.9969 21.5435 17.0266 21.5733C17.5941 22.1422 18.5146 22.1422 19.0822 21.5733C19.6497 21.0043 19.6497 20.0817 19.0822 19.5127H19.0817Z" fill="white"/>
</svg>
