<?xml version="1.0" encoding="UTF-8"?>
<svg xmlns="http://www.w3.org/2000/svg" xmlns:xlink="http://www.w3.org/1999/xlink" width="24px" height="24px" viewBox="0 0 24 24" version="1.1">
<g id="surface1">
<path style=" stroke:none;fill-rule:nonzero;fill:rgb(98.431373%,60%,17.647059%);fill-opacity:1;" d="M 10.433594 10.957031 L 12 24 L 22.433594 18 L 22.433594 6 Z M 10.433594 10.957031 "/>
<path style=" stroke:none;fill-rule:nonzero;fill:rgb(100%,71.764706%,22.352941%);fill-opacity:1;" d="M 12 10.433594 L 12 24 L 1.566406 18 L 1.566406 6 Z M 12 10.433594 "/>
<path style=" stroke:none;fill-rule:nonzero;fill:rgb(98.431373%,60%,17.647059%);fill-opacity:1;" d="M 1.566406 6 L 5.210938 8.097656 L 12.125 6.066406 L 15.648438 2.097656 L 12 0 Z M 1.566406 6 "/>
<path style=" stroke:none;fill-rule:nonzero;fill:rgb(96.470588%,47.843137%,12.941176%);fill-opacity:1;" d="M 8.351562 9.902344 L 12 12 L 22.433594 6 L 18.789062 3.902344 L 11.824219 5.960938 Z M 8.351562 9.902344 "/>
<path style=" stroke:none;fill-rule:nonzero;fill:rgb(100%,91.764706%,76.470588%);fill-opacity:1;" d="M 8.351562 15.121094 L 5.210938 13.316406 L 5.210938 8.097656 L 8.238281 8.332031 L 8.351562 9.902344 Z M 8.351562 15.121094 "/>
<path style=" stroke:none;fill-rule:nonzero;fill:rgb(100%,83.137255%,53.333333%);fill-opacity:1;" d="M 5.210938 8.097656 L 15.648438 2.097656 L 18.789062 3.902344 L 8.351562 9.902344 Z M 5.210938 8.097656 "/>
</g>
</svg>
