<svg width="25" height="24" viewBox="0 0 25 24" fill="none" xmlns="http://www.w3.org/2000/svg">
<g clip-path="url(#clip0_3840_691)">
<path d="M23.0045 4H10.1753C9.34929 4 8.67969 4.663 8.67969 5.48084V12.1059C8.67969 12.9237 9.34929 13.5867 10.1753 13.5867H23.0045C23.8305 13.5867 24.5001 12.9237 24.5001 12.1059V5.48084C24.5001 4.663 23.8305 4 23.0045 4Z" fill="white"/>
<path d="M19.1853 17.1656V10.7207C19.1853 9.90287 18.5157 9.23987 17.6897 9.23987H13.4793C12.6534 9.23987 11.9838 9.90287 11.9838 10.7207V17.1656C11.9838 17.9835 12.6534 18.6465 13.4793 18.6465H17.6897C18.5157 18.6465 19.1853 17.9835 19.1853 17.1656Z" fill="white"/>
<path d="M21.7409 16.5889H9.38482C8.99539 16.5889 8.67969 16.9015 8.67969 17.2871V19.4564C8.67969 19.842 8.99539 20.1545 9.38482 20.1545H21.7409C22.1304 20.1545 22.4461 19.842 22.4461 19.4564V17.2871C22.4461 16.9015 22.1304 16.5889 21.7409 16.5889Z" fill="white"/>
<path d="M5.97973 5.42639H1.69533C0.933075 5.42639 0.366146 6.12318 0.527622 6.86046C1.09032 9.42837 3.13169 11.4503 5.72518 12.0068C6.4698 12.1666 7.17353 11.6053 7.17353 10.8513V6.60911C7.17353 5.95631 6.63903 5.42709 5.97973 5.42709V5.42639Z" fill="white"/>
</g>
<defs>
<clipPath id="clip0_3840_691">
<rect width="24" height="24" fill="white" transform="translate(0.5)"/>
</clipPath>
</defs>
</svg>
