<?xml version="1.0" encoding="UTF-8"?>
<svg xmlns="http://www.w3.org/2000/svg" xmlns:xlink="http://www.w3.org/1999/xlink" width="24px" height="24px" viewBox="0 0 24 24" version="1.1">
<g id="surface1">
<path style=" stroke:none;fill-rule:nonzero;fill:rgb(20.784314%,29.019608%,40.392157%);fill-opacity:1;" d="M 0 0 L 0 24 L 12 24 L 12.523438 12 L 12 0 Z M 0 0 "/>
<path style=" stroke:none;fill-rule:nonzero;fill:rgb(13.72549%,19.215686%,27.058824%);fill-opacity:1;" d="M 12 0 L 24 0 L 24 24 L 12 24 Z M 12 0 "/>
<path style=" stroke:none;fill-rule:nonzero;fill:rgb(52.941176%,60%,70.196078%);fill-opacity:1;" d="M 2.347656 2.347656 L 2.347656 21.652344 L 12 21.652344 L 12.523438 12 L 12 2.347656 Z M 2.347656 2.347656 "/>
<path style=" stroke:none;fill-rule:nonzero;fill:rgb(41.960784%,50.588235%,63.137255%);fill-opacity:1;" d="M 12 2.347656 L 21.652344 2.347656 L 21.652344 21.652344 L 12 21.652344 Z M 12 2.347656 "/>
<path style=" stroke:none;fill-rule:nonzero;fill:rgb(7.058824%,9.803922%,13.72549%);fill-opacity:1;" d="M 1.566406 3.914062 L 3.128906 3.914062 L 3.128906 8.609375 L 1.566406 8.609375 Z M 1.566406 3.914062 "/>
<path style=" stroke:none;fill-rule:nonzero;fill:rgb(7.058824%,9.803922%,13.72549%);fill-opacity:1;" d="M 1.566406 15.390625 L 3.128906 15.390625 L 3.128906 20.085938 L 1.566406 20.085938 Z M 1.566406 15.390625 "/>
<path style=" stroke:none;fill-rule:nonzero;fill:rgb(20.784314%,29.019608%,40.392157%);fill-opacity:1;" d="M 12 6.78125 C 10.070312 6.78125 8.382812 7.832031 7.480469 9.390625 L 9.363281 11 L 12 12 L 12.523438 9.390625 Z M 12 6.78125 "/>
<path style=" stroke:none;fill-rule:nonzero;fill:rgb(20.784314%,29.019608%,40.392157%);fill-opacity:1;" d="M 7.480469 14.609375 C 8.382812 16.167969 10.070312 17.21875 12 17.21875 L 12.523438 14.609375 L 12 12 L 9.289062 13.042969 Z M 7.480469 14.609375 "/>
<path style=" stroke:none;fill-rule:nonzero;fill:rgb(27.45098%,38.431373%,53.72549%);fill-opacity:1;" d="M 7.480469 9.390625 C 7.035156 10.160156 6.78125 11.050781 6.78125 12 C 6.78125 12.949219 7.035156 13.839844 7.480469 14.609375 L 12 12 Z M 7.480469 9.390625 "/>
<path style=" stroke:none;fill-rule:nonzero;fill:rgb(13.72549%,19.215686%,27.058824%);fill-opacity:1;" d="M 16.519531 9.390625 C 15.617188 7.832031 13.929688 6.78125 12 6.78125 L 12 12 L 14.71875 10.953125 Z M 16.519531 9.390625 "/>
<path style=" stroke:none;fill-rule:nonzero;fill:rgb(13.72549%,19.215686%,27.058824%);fill-opacity:1;" d="M 12 17.21875 C 13.929688 17.21875 15.617188 16.167969 16.519531 14.609375 L 14.75 13.066406 L 12 12 Z M 12 17.21875 "/>
<path style=" stroke:none;fill-rule:nonzero;fill:rgb(20.784314%,29.019608%,40.392157%);fill-opacity:1;" d="M 16.519531 9.390625 L 12 12 L 16.519531 14.609375 C 16.964844 13.839844 17.21875 12.949219 17.21875 12 C 17.21875 11.050781 16.964844 10.160156 16.519531 9.390625 Z M 16.519531 9.390625 "/>
<path style=" stroke:none;fill-rule:nonzero;fill:rgb(13.72549%,19.215686%,27.058824%);fill-opacity:1;" d="M 8.871094 12 C 8.871094 13.730469 10.269531 15.128906 12 15.128906 L 12.523438 12 L 12 8.871094 C 10.269531 8.871094 8.871094 10.269531 8.871094 12 Z M 8.871094 12 "/>
<path style=" stroke:none;fill-rule:nonzero;fill:rgb(7.058824%,9.803922%,13.72549%);fill-opacity:1;" d="M 12 8.871094 L 12 15.128906 C 13.730469 15.128906 15.128906 13.730469 15.128906 12 C 15.128906 10.269531 13.730469 8.871094 12 8.871094 Z M 12 8.871094 "/>
</g>
</svg>
